<svg xmlns="http://www.w3.org/2000/svg" fill="none" viewBox="0 0 102 107"><path fill="#FCD581" d="M102 0v107H0V0h102Z"/><path fill="#FCD581" d="M102 0v107H0V0h102Z"/><path fill="#0B0033" d="M54.7 21A33.4 33.4 0 0 1 70 24.6c2 1.2 3.7 2.9 5 4.9a13 13 0 0 1 1.9 6.9c0 3-1 5.5-3 7.6-2 2-4.4 3-7.4 3s-5.5-1-7.3-2.8a9.8 9.8 0 0 1-2.6-7c0-2.8.8-5.1 2.6-7 1.7-2 3.8-3.2 6.1-3.8a7 7 0 0 0-2.5-1.6c-1-.4-2-.6-3.4-.6-2.7 0-4.9.8-6.7 2.4a16.8 16.8 0 0 0-4.5 6.3c-1 2.6-2 5.6-2.5 9-.4 3.2-.7 6.6-.7 10 0 6 .8 10.5 2.3 13.9a16 16 0 0 0 5.7 6.9A15 15 0 0 0 64.5 74c1.7-.4 3.4-1.3 5.2-2.5a21 21 0 0 0 5.3-5.7l2 .7c-.9 3-2.3 6.1-4.4 9.1-2 3-4.6 5.6-7.9 7.5A22.8 22.8 0 0 1 53 86a31 31 0 0 1-14.1-3.2 23.6 23.6 0 0 1-10-10.4A40 40 0 0 1 25 53.7c0-7.4 1.3-13.5 3.9-18.3 2.6-4.8 6.1-8.4 10.6-10.8 4.6-2.4 9.6-3.6 15.2-3.6Z"/></svg>