<svg width="679" height="754" viewBox="0 0 679 754" fill="none" xmlns="http://www.w3.org/2000/svg">
<path d="M657.9 580.7L352.8 753.3V618.9L542.9 514.3L657.9 580.7ZM678.8 561.8V200.9L567.2 265.4V497.4L678.8 561.8ZM20.9 580.7L326 753.3V618.9L135.8 514.3L20.9 580.7ZM0 561.8V200.9L111.6 265.4V497.4L0 561.8ZM13.1 177.5L326 0.5V130.4L125.5 240.7L123.9 241.6L13.1 177.5ZM665.7 177.5L352.8 0.5V130.4L553.3 240.6L554.9 241.5L665.7 177.5Z" fill="#282828"/>
<path d="M326 588.3L138.4 485.1V280.8L326 389.1V588.3ZM352.8 588.3L540.4 485.2V280.8L352.8 389.1V588.3ZM151.1 257.2L339.4 153.7L527.7 257.2L339.4 365.9L151.1 257.2Z" fill="#282828"/>
</svg>
