<!-- Generator: Adobe Illustrator 19.0.0, SVG Export Plug-In  -->
<svg version="1.1"
	 xmlns="http://www.w3.org/2000/svg" xmlns:xlink="http://www.w3.org/1999/xlink" xmlns:a="http://ns.adobe.com/AdobeSVGViewerExtensions/3.0/"
	 x="0px" y="0px" width="444.5px" height="110.4px" viewBox="0 0 444.5 110.4"
	 style="overflow:scroll;enable-background:new 0 0 444.5 110.4;" xml:space="preserve">
<style type="text/css">
	.st0{fill:none;stroke:#000000;}
</style>
<defs>
</defs>
<g id="XMLID_26_">
	<path id="XMLID_35_" class="st0" d="M80,36.6l-21.7,71.7H31.8L0.7,2.2h27.9l17.9,67.1h0.4L67.3,2.2h25.8l21,67.2h0.3l18.3-67.2
		h27.1l-31.3,106.1h-26.9L80.3,36.6H80z"/>
	<path id="XMLID_32_" class="st0" d="M155.8,27.6c4.9-8.4,11.8-15.1,20.2-19.9c8.6-4.8,17.9-7.1,27.9-7.1s19.4,2.3,27.8,7.1
		c8.3,4.7,15,11.2,19.9,19.6c4.9,8.3,7.4,17.6,7.4,27.6c0,7.6-1.5,14.7-4.4,21.5c-3.1,6.8-6.8,12.7-11.8,17.5
		c-5.1,4.9-10.9,8.9-17.8,11.6c-6.8,2.9-14,4.4-21.5,4.4c-10.2,0-19.4-2.3-27.8-7.3c-8.6-4.7-15.1-11.2-20.2-19.6
		c-4.9-8.4-7.4-17.6-7.4-27.8C148.2,45.2,150.7,36,155.8,27.6z M183.7,76c5.4,5.8,12.1,8.9,19.9,8.9c8,0,14.7-3.1,20.1-8.9
		c5.4-6,8.1-12.9,8.1-21c0.3-15.4-12.4-30-28.2-29.7c-5.1,0-10,1.5-14.4,4.2s-7.7,6.4-10,10.9c-2.5,4.5-3.6,9.3-3.6,14.5
		C175.6,63.1,178.2,70,183.7,76z"/>
	<path id="XMLID_29_" class="st0" d="M319.3,108.3l-19.5-37.2h-10.9v37.2h-26.8V2.2h43.5c12.1,0,21.7,2.9,29,8.6
		c7.1,5.8,10.8,14.4,10.8,25.5c0,15.1-7.3,25.2-19.5,30.3l22,41.8H319.3z M288.9,48.2h14.7c9.7,0,15-3.8,15-10.9
		c0-7.1-4.8-11.9-15.1-11.9h-14.5V48.2z"/>
	<path id="XMLID_27_" class="st0" d="M376.8,58.1v50.2h-26.9V2.2h26.9v45.5l32.7-45.5h31.4l-36.4,50.3l39,55.7h-33.3L376.8,58.1z"/>
</g>
</svg>
